<svg width="256" height="252" viewBox="0 0 256 252" fill="none" xmlns="http://www.w3.org/2000/svg">
<path d="M128.008 14.3667C96.7028 14.3667 68.3525 26.8661 47.8264 47.0869C27.2925 67.2614 14.6025 95.1842 14.6025 126.015C14.6025 156.824 27.2925 184.727 47.8264 204.909C68.3525 225.103 96.7028 237.626 128.008 237.626C159.321 237.626 187.687 225.103 208.181 204.909C228.707 184.727 241.37 156.824 241.37 126.015C241.37 95.1842 228.707 67.2614 208.181 47.0869C187.687 26.8661 159.321 14.3667 128.008 14.3667ZM128.008 0.840025C198.219 0.840025 255.147 56.8856 255.147 126.015C255.147 195.122 198.219 251.16 128.008 251.16C57.8042 251.16 0.853333 195.122 0.853333 126.015C0.853333 56.8856 57.8042 0.840025 128.008 0.840025" fill="#007DB8"/>
<path d="M67.873 124.996C67.873 117.701 62.9564 113.558 55.9958 113.558H51.7359V136.441H55.8747C62.3467 136.441 67.873 132.978 67.873 124.996ZM143.65 133.229L112.267 157.554L83.5841 135.325C79.4453 145.112 69.4441 151.91 57.9265 151.91H33.3789V98.0808H57.9265C70.7963 98.0808 80.0706 106.137 83.5763 114.72L112.267 92.5139L122.893 100.747L96.5985 121.091L101.652 124.984L127.939 104.652L138.581 112.862L112.29 133.229L117.336 137.13L143.65 116.759V98.0808H162.726V136.199H181.755V151.976H143.65V133.229V133.229ZM205.92 136.206H224.941V151.976H186.824V98.0808H205.92V136.206V136.206Z" fill="#007DB8"/>
</svg>
