<svg width="404" height="138" viewBox="0 0 404 138" fill="none" xmlns="http://www.w3.org/2000/svg">
<path d="M171.923 70.77C171.923 89.925 157.085 104.04 138.875 104.04C120.665 104.04 105.827 89.925 105.827 70.77C105.827 51.48 120.665 37.5 138.875 37.5C157.085 37.5 171.923 51.48 171.923 70.77ZM157.456 70.77C157.456 58.8 148.856 50.61 138.875 50.61C128.894 50.61 120.294 58.8 120.294 70.77C120.294 82.62 128.894 90.93 138.875 90.93C148.856 90.93 157.456 82.605 157.456 70.77Z" fill="#EA4335"/>
<path d="M243.217 70.77C243.217 89.925 228.379 104.04 210.169 104.04C191.959 104.04 177.121 89.925 177.121 70.77C177.121 51.495 191.959 37.5 210.169 37.5C228.379 37.5 243.217 51.48 243.217 70.77ZM228.75 70.77C228.75 58.8 220.15 50.61 210.169 50.61C200.188 50.61 191.588 58.8 191.588 70.77C191.588 82.62 200.188 90.93 210.169 90.93C220.15 90.93 228.75 82.605 228.75 70.77Z" fill="#FBBC05"/>
<path d="M311.54 39.51V99.24C311.54 123.81 297.193 133.845 280.23 133.845C264.264 133.845 254.654 123.06 251.03 114.24L263.625 108.945C265.868 114.36 271.363 120.75 280.216 120.75C291.073 120.75 297.801 113.985 297.801 101.25V96.465H297.296C294.059 100.5 287.82 104.025 279.948 104.025C263.476 104.025 248.386 89.535 248.386 70.89C248.386 52.11 263.476 37.5 279.948 37.5C287.805 37.5 294.044 41.025 297.296 44.94H297.801V39.525H311.54V39.51ZM298.826 70.89C298.826 59.175 291.088 50.61 281.24 50.61C271.259 50.61 262.897 59.175 262.897 70.89C262.897 82.485 271.259 90.93 281.24 90.93C291.088 90.93 298.826 82.485 298.826 70.89Z" fill="#4285F4"/>
<path d="M334.191 4.5V102H320.081V4.5H334.191Z" fill="#34A853"/>
<path d="M389.177 81.72L400.406 89.28C396.781 94.695 388.048 104.025 372.957 104.025C354.243 104.025 340.266 89.415 340.266 70.755C340.266 50.97 354.361 37.485 371.338 37.485C388.434 37.485 396.796 51.225 399.529 58.65L401.029 62.43L356.99 80.85C360.362 87.525 365.605 90.93 372.957 90.93C380.324 90.93 385.434 87.27 389.177 81.72ZM354.614 69.75L384.052 57.405C382.434 53.25 377.562 50.355 371.828 50.355C364.476 50.355 354.243 56.91 354.614 69.75V69.75Z" fill="#EA4335"/>
<path d="M52.416 62.115V48H99.5147C99.9751 50.46 100.213 53.37 100.213 56.52C100.213 67.11 97.3462 80.205 88.1076 89.535C79.1216 98.985 67.6403 104.025 52.4309 104.025C24.24 104.025 0.534698 80.835 0.534698 52.365C0.534698 23.895 24.24 0.705017 52.4309 0.705017C68.0265 0.705017 79.1365 6.88502 87.4838 14.94L77.6215 24.9C71.6357 19.23 63.526 14.82 52.416 14.82C31.8298 14.82 15.7293 31.575 15.7293 52.365C15.7293 73.155 31.8298 89.91 52.416 89.91C65.7688 89.91 73.3735 84.495 78.2453 79.575C82.1962 75.585 84.7954 69.885 85.8203 62.1L52.416 62.115V62.115Z" fill="#4285F4"/>
</svg>
