<svg width="379" height="72" viewBox="0 0 379 72" fill="none" xmlns="http://www.w3.org/2000/svg">
<rect width="72.189" height="72" rx="17" fill="#027ED6"/>
<path d="M12.828 45.5095L35.2765 58.2328V47.3271L12.828 37.3303V45.5095ZM59.361 37.3319L36.9124 47.3271V58.2328L59.361 45.5563V37.3318V37.3319ZM54.1954 38.2557L57.7182 36.698L49.9849 33.7673L49.2692 35.7015C50.6804 36.3258 52.3638 37.2179 54.1954 38.2557V38.2557ZM45.3053 14.2969L43.8427 18.4032C43.5179 19.539 44.1003 21.28 45.9701 21.6453L43.5332 28.4441C41.5527 27.6168 39.7849 28.1869 38.7223 29.3376L36.0511 28.3118L14.4694 36.6946L17.9853 38.2301C23.7622 34.7873 30.5961 32.4112 37.1406 32.787L36.1921 35.335C33.7068 35.4086 31.5815 36.0328 29.7181 37.0573C36.2195 36.011 42.9918 37.7489 48.0001 40.3234C47.8792 39.7335 47.547 39.1983 46.9932 38.6685L48.7649 33.6474C49.2993 32.213 48.8774 29.4989 45.5584 29.0067L48.0055 22.2283C50.2985 22.8054 51.6632 21.3119 51.9856 20.3234L53.3214 16.5188L45.3053 14.2969V14.2969ZM49.8726 19.8055C49.8064 20.0812 49.3206 20.307 48.9352 20.1363L46.5422 19.4637C46.0764 19.2804 45.8959 18.9954 46.046 18.5925L46.6085 17.0047L50.5122 18.0963L49.8726 19.8055V19.8055Z" fill="#012C4B"/>
<path d="M92.5 31.75V28.5H108.75V25.25H95.75V22H92.5V18.75H95.75V15.5H112V18.75H99V22H112V25.25H115.25V28.5H112V31.75H92.5ZM121.75 31.75V28.5H118.5V25.25H121.75V22H134.75V18.75H121.75V15.5H138V18.75H141.25V31.75H121.75ZM125 28.5H134.75V25.25H125V28.5ZM144.5 31.75V15.5H164V18.75H167.25V31.75H160.75V18.75H151V31.75H144.5ZM173.75 31.75V28.5H170.5V18.75H173.75V15.5H186.75V9H193.25V31.75H173.75ZM177 28.5H186.75V18.75H177V28.5ZM232.25 31.75V28.5H229V25.25H225.75V15.5H232.25V25.25H238.75V15.5H245.25V25.25H242V28.5H238.75V31.75H232.25ZM251.75 31.75V28.5H248.5V25.25H251.75V22H264.75V18.75H251.75V15.5H268V18.75H271.25V31.75H251.75ZM255 28.5H264.75V25.25H255V28.5ZM277.75 31.75V28.5H284.25V12.25H281V9H290.75V28.5H297.25V31.75H277.75ZM303.75 31.75V28.5H310.25V12.25H307V9H316.75V28.5H323.25V31.75H303.75ZM329.75 31.75V28.5H326.5V18.75H329.75V15.5H346V18.75H349.25V25.25H333V28.5H346V31.75H329.75ZM333 22H342.75V18.75H333V22ZM355.75 35V31.75H368.75V28.5H355.75V25.25H352.5V15.5H359V25.25H368.75V15.5H375.25V31.75H372V35H355.75Z" fill="#027ED6"/>
<path d="M110 55.5H111.25V56.75H108.75V55.5H107.5V50.5H110V55.5ZM112.5 50.5V55.5H111.25V50.5H112.5ZM116.25 50.5V55.5H115V56.75H112.5V55.5H113.75V50.5H116.25ZM118.75 56.75V55.5H117.5V51.75H118.75V50.5H125V51.75H126.25V54.25H120V55.5H125V56.75H118.75ZM120 53H123.75V51.75H120V53ZM128.75 56.75V55.5H127.5V48H130V50.5H135V51.75H136.25V55.5H135V56.75H128.75ZM130 55.5H133.75V51.75H130V55.5ZM137.5 56.75V55.5H143.75V54.25H138.75V53H137.5V51.75H138.75V50.5H145V51.75H140V53H145V54.25H146.25V55.5H145V56.75H137.5ZM151.25 49.25V48H153.75V49.25H151.25ZM148.75 56.75V55.5H151.25V51.75H150V50.5H153.75V55.5H156.25V56.75H148.75ZM161.25 56.75V51.75H158.75V50.5H161.25V48H163.75V50.5H166.25V51.75H163.75V56.75H161.25ZM168.75 56.75V55.5H167.5V51.75H168.75V50.5H175V51.75H176.25V54.25H170V55.5H175V56.75H168.75ZM170 53H173.75V51.75H170V53ZM191.25 56.75V51.75H188.75V50.5H191.25V49.25H192.5V48H196.25V49.25H193.75V50.5H196.25V51.75H193.75V56.75H191.25ZM198.75 56.75V55.5H197.5V51.75H198.75V50.5H205V51.75H206.25V55.5H205V56.75H198.75ZM200 55.5H203.75V51.75H200V55.5ZM211.25 51.75H212.5V53H211.25V56.75H208.75V50.5H211.25V51.75ZM216.25 50.5V51.75H212.5V50.5H216.25ZM228.75 58V56.75H233.75V55.5H228.75V54.25H227.5V50.5H230V54.25H233.75V50.5H236.25V56.75H235V58H228.75ZM238.75 56.75V55.5H237.5V51.75H238.75V50.5H245V51.75H246.25V55.5H245V56.75H238.75ZM240 55.5H243.75V51.75H240V55.5ZM248.75 56.75V55.5H247.5V50.5H250V55.5H253.75V50.5H256.25V56.75H248.75ZM261.25 51.75H262.5V53H261.25V56.75H258.75V50.5H261.25V51.75ZM266.25 50.5V51.75H262.5V50.5H266.25ZM278.75 56.75V55.5H277.5V48H280V50.5H285V51.75H286.25V55.5H285V56.75H278.75ZM280 55.5H283.75V51.75H280V55.5ZM288.75 56.75V55.5H287.5V50.5H290V55.5H293.75V50.5H296.25V56.75H288.75ZM297.5 56.75V55.5H303.75V54.25H298.75V53H297.5V51.75H298.75V50.5H305V51.75H300V53H305V54.25H306.25V55.5H305V56.75H297.5ZM311.25 49.25V48H313.75V49.25H311.25ZM308.75 56.75V55.5H311.25V51.75H310V50.5H313.75V55.5H316.25V56.75H308.75ZM317.5 56.75V50.5H325V51.75H326.25V56.75H323.75V51.75H320V56.75H317.5ZM328.75 56.75V55.5H327.5V51.75H328.75V50.5H335V51.75H336.25V54.25H330V55.5H335V56.75H328.75ZM330 53H333.75V51.75H330V53ZM337.5 56.75V55.5H343.75V54.25H338.75V53H337.5V51.75H338.75V50.5H345V51.75H340V53H345V54.25H346.25V55.5H345V56.75H337.5ZM347.5 56.75V55.5H353.75V54.25H348.75V53H347.5V51.75H348.75V50.5H355V51.75H350V53H355V54.25H356.25V55.5H355V56.75H347.5Z" fill="#027ED6"/>
</svg>
