<svg width="238" height="238" viewBox="0 0 238 238" fill="none" xmlns="http://www.w3.org/2000/svg">
<g clip-path="url(#clip0_120_40)">
<path d="M119.331 -0.000211688L93.7266 71.7868L111.132 71.7922C123.67 71.7959 129.005 81.6816 125.057 92.7524L99.5981 164.132H73.9798L101.99 85.5908H88.7996L60.7917 164.132H34.9521L92.4243 2.97697C39.4979 15.0512 -0.000610352 62.4091 -0.000610352 118.995C-0.000610352 174.7 38.2745 221.458 89.9586 234.422L148.023 71.3867H190.076C198.773 71.3867 209.713 77.2514 204.985 90.5994L181.375 157.267C178.359 165.783 171.19 167.508 165.479 167.508H139.628L114.554 237.908C116.031 237.962 117.51 237.999 118.998 237.999C184.72 237.999 237.998 184.722 237.998 118.997C237.998 53.3836 184.898 0.177649 119.327 -0.000854492L119.331 -0.000211688ZM168.87 85.3983L144.483 153.858H157.469L181.862 85.3983H168.87Z" fill="#015294"/>
</g>
<defs>
<clipPath id="clip0_120_40">
<rect width="238" height="238" fill="white"/>
</clipPath>
</defs>
</svg>
