<svg width="282" height="282" viewBox="0 0 282 282" fill="none" xmlns="http://www.w3.org/2000/svg">
<path d="M249.825 208.29C250.94 203.976 249.821 202.452 247.95 201.87C238.099 195.792 231.531 188.966 224.571 178.87C218.967 167.144 215.97 163.489 216.373 146.963C215.997 138.998 216.984 131.034 220.356 123.069C224.327 114.897 227.958 108.019 235.44 103.254L242.608 96.8827C244.34 95.5764 244.338 92.9808 243.453 91.2108C237.205 84.7526 232.155 78.1232 220.919 72.3774C216.367 69.7419 209.496 67.7024 200.444 67.3171C194.053 67.32 187.853 67.1323 180.017 68.5801C173.739 69.6022 167.18 71.7326 160.902 74.9518L151.859 79.2639C146.124 80.6684 140.917 79.958 135.93 78.3709L119.204 71.2994C113.383 69.1558 106.569 68.0051 98.4958 68.1135C90.5263 68.0895 82.6284 68.4237 75.3982 72.0958C69.6665 74.8597 64.4522 78.1411 59.4688 81.6533C53.5625 87.163 47.9566 92.9731 43.5394 99.9719C40.137 104.367 37.727 111.457 35.0599 118.057C32.6245 124.664 31.5097 129.554 30.5143 135.531C28.7707 147.089 28.9788 154.107 29.3879 162.892C30.2481 177.932 32.4001 183.404 33.9818 192.361C35.886 199.969 38.5117 206.133 41.15 212.273C43.8306 219.693 48.1798 226.28 52.3006 232.981C55.9266 239.941 61.5931 247.582 67.4335 255.281C72.4808 260.858 74.8205 265.081 84.4409 271.959C90.8928 275.989 91.8459 276.773 95.3099 278.379C98.4986 279.172 101.796 279.857 106.46 279.175C109.493 278.533 112.337 278.077 116.815 275.989C120 274.662 123.186 273.335 126.372 272.007C129.934 270.414 133.425 268.821 139.912 267.228C144.16 266.671 148.408 266.246 152.656 266.432C155.326 266.388 159.771 267.409 166.196 269.618C170.19 270.953 172.379 271.085 180.532 275.193C183.991 276.317 186.197 278.276 191.683 278.049C196.954 277.324 201.933 275.462 205.737 273.27C209.94 270.194 214.894 267.87 217.733 263.431C221.162 260.234 223.177 257.743 225.134 255.281L234.692 240.945C237.755 237.297 240.528 233.068 242.842 227.92C245.633 221.841 247.774 215.11 249.825 208.29Z" fill="#F3F3F3" stroke="#939494"/>
<path d="M139.49 63.4756C139.574 66.6588 141.577 65.7082 142.7 66.1224C146.922 66.6012 148.993 65.4664 151.859 64.9277C157.403 63.3387 159.54 62.1755 162.213 60.9454C165.266 59.129 168.32 57.8193 171.373 54.9719C174.252 52.8787 176.08 51.0918 178.541 48.202C181.797 44.856 182.888 43.2753 185.311 39.8392C188.006 35.9099 189.293 33.295 191.284 29.087C192.62 25.706 194.23 22.4626 194.869 18.733C195.573 15.3687 196.467 12.0985 196.461 8.37907C196.685 6.56221 196.174 5.481 195.665 4.39677C193.653 3.20967 192.617 3.24868 190.275 3.41535C187.533 3.42708 184.023 3.84878 180.134 5.59146C175.851 7.55914 171.754 9.65073 168.585 12.3614C165.2 14.4853 162.905 16.6091 160.62 18.733C157.846 21.2684 155.465 24.1973 153.054 27.0959C150.31 30.3703 148.169 33.2125 146.915 36.1143C145.224 39.3471 144.049 42.5799 142.7 45.8127C141.268 49.2627 140.171 52.8803 139.49 56.7056C139.097 59.0932 139.199 60.7527 139.49 63.4756Z" fill="#F9F9F9" stroke="#939494"/>
<path d="M139.49 63.4756C139.574 66.6588 141.577 65.7082 142.7 66.1224C146.922 66.6012 148.993 65.4664 151.859 64.9277C157.403 63.3387 159.54 62.1755 162.213 60.9454C165.266 59.129 168.32 57.8193 171.373 54.9719C174.252 52.8787 176.08 51.0918 178.541 48.202C181.797 44.856 182.888 43.2753 185.311 39.8392C188.006 35.9099 189.293 33.295 191.284 29.087C192.62 25.706 194.23 22.4626 194.869 18.733C195.573 15.3687 196.467 12.0985 196.461 8.37907C196.685 6.56221 196.174 5.481 195.665 4.39677C193.653 3.20967 192.617 3.24868 190.275 3.41535C187.533 3.42708 184.023 3.84878 180.134 5.59146C175.851 7.55914 171.754 9.65073 168.585 12.3614C165.2 14.4853 162.905 16.6091 160.62 18.733C157.846 21.2684 155.465 24.1973 153.054 27.0959C150.31 30.3703 148.169 33.2125 146.915 36.1143C145.224 39.3471 144.049 42.5799 142.7 45.8127C141.268 49.2627 140.171 52.8803 139.49 56.7056C139.097 59.0932 139.199 60.7527 139.49 63.4756Z" fill="url(#paint0_linear_120_26)" stroke="#939494"/>
<path d="M249.825 208.29C250.94 203.976 249.821 202.452 247.95 201.87C238.099 195.792 231.531 188.966 224.571 178.87C218.967 167.144 215.97 163.489 216.373 146.963C215.997 138.998 216.984 131.034 220.356 123.069C224.327 114.897 227.958 108.019 235.44 103.254L242.608 96.8827C244.34 95.5764 244.338 92.9808 243.453 91.2108C237.205 84.7526 232.155 78.1232 220.919 72.3774C216.367 69.7419 209.496 67.7024 200.444 67.3171C194.053 67.32 187.853 67.1323 180.017 68.5801C173.739 69.6022 167.18 71.7326 160.902 74.9518L151.859 79.2639C146.124 80.6684 140.917 79.958 135.93 78.3709L119.204 71.2994C113.383 69.1558 106.569 68.0051 98.4958 68.1135C90.5263 68.0895 82.6284 68.4237 75.3982 72.0958C69.6665 74.8597 64.4522 78.1411 59.4688 81.6533C53.5625 87.163 47.9566 92.9731 43.5394 99.9719C40.137 104.367 37.727 111.457 35.0599 118.057C32.6245 124.664 31.5097 129.554 30.5143 135.531C28.7707 147.089 28.9788 154.107 29.3879 162.892C30.2481 177.932 32.4001 183.404 33.9818 192.361C35.886 199.969 38.5117 206.133 41.15 212.273C43.8306 219.693 48.1798 226.28 52.3006 232.981C55.9266 239.941 61.5931 247.582 67.4335 255.281C72.4808 260.858 74.8205 265.081 84.4409 271.959C90.8928 275.989 91.8459 276.773 95.3099 278.379C98.4986 279.172 101.796 279.857 106.46 279.175C109.493 278.533 112.337 278.077 116.815 275.989C120 274.662 123.186 273.335 126.372 272.007C129.934 270.414 133.425 268.821 139.912 267.228C144.16 266.671 148.408 266.246 152.656 266.432C155.326 266.388 159.771 267.409 166.196 269.618C170.19 270.953 172.379 271.085 180.532 275.193C183.991 276.317 186.197 278.276 191.683 278.049C196.954 277.324 201.933 275.462 205.737 273.27C209.94 270.194 214.894 267.87 217.733 263.431C221.162 260.234 223.177 257.743 225.134 255.281L234.692 240.945C237.755 237.297 240.528 233.068 242.842 227.92C245.633 221.841 247.774 215.11 249.825 208.29Z" fill="url(#paint1_linear_120_26)" stroke="#939494"/>
<path d="M139.49 63.4756C139.574 66.6588 141.577 65.7082 142.7 66.1224C146.922 66.6012 148.993 65.4664 151.859 64.9277C157.403 63.3387 159.54 62.1755 162.213 60.9454C165.266 59.129 168.32 57.8193 171.373 54.9719C174.252 52.8787 176.08 51.0918 178.541 48.202C181.797 44.856 182.888 43.2753 185.311 39.8392C188.006 35.9099 189.293 33.295 191.284 29.087C192.62 25.706 194.23 22.4626 194.869 18.733C195.573 15.3687 196.467 12.0985 196.461 8.37907C196.685 6.56221 196.174 5.481 195.665 4.39677C193.653 3.20967 192.617 3.24868 190.275 3.41535C187.533 3.42708 184.023 3.84878 180.134 5.59146C175.851 7.55914 171.754 9.65073 168.585 12.3614C165.2 14.4853 162.905 16.6091 160.62 18.733C157.846 21.2684 155.465 24.1973 153.054 27.0959C150.31 30.3703 148.169 33.2125 146.915 36.1143C145.224 39.3471 144.049 42.5799 142.7 45.8127C141.268 49.2627 140.171 52.8803 139.49 56.7056C139.097 59.0932 139.199 60.7527 139.49 63.4756Z" fill="url(#paint2_linear_120_26)" stroke="#939494"/>
<defs>
<linearGradient id="paint0_linear_120_26" x1="155.784" y1="62.789" x2="146.882" y2="49.436" gradientUnits="userSpaceOnUse">
<stop stop-color="#E1E0DF"/>
<stop offset="1" stop-color="#E1E0DF" stop-opacity="0"/>
</linearGradient>
<linearGradient id="paint1_linear_120_26" x1="201.407" y1="274.211" x2="147.995" y2="191.868" gradientUnits="userSpaceOnUse">
<stop stop-color="#E1E0DF"/>
<stop offset="1" stop-color="#E1E0DF" stop-opacity="0"/>
</linearGradient>
<linearGradient id="paint2_linear_120_26" x1="155.784" y1="62.789" x2="146.882" y2="49.436" gradientUnits="userSpaceOnUse">
<stop stop-color="#E1E0DF"/>
<stop offset="1" stop-color="#E1E0DF" stop-opacity="0"/>
</linearGradient>
</defs>
</svg>
