<svg width="280" height="118" viewBox="0 0 280 118" fill="none" xmlns="http://www.w3.org/2000/svg">
<g clip-path="url(#clip0_120_43)">
<path d="M22.0398 1.64771H0V23.6655H22.0398V1.64771Z" fill="#0068B5"/>
<path d="M21.4905 116.36V36.9875H0.549255V116.281H21.4905V116.36ZM160.157 117.143V97.7114C157.098 97.7114 154.51 97.5547 152.628 97.2413C150.431 96.9279 148.784 96.1443 147.686 95.0473C146.588 93.9504 145.882 92.3833 145.49 90.2677C145.177 88.3089 145.02 85.7231 145.02 82.589V54.9299H160.157V36.9867H145.02V6.11472H124.078V82.8237C124.078 89.3271 124.627 94.8116 125.726 99.2001C126.824 103.51 128.706 107.036 131.294 109.7C133.882 112.363 137.333 114.244 141.49 115.419C145.726 116.595 151.059 117.143 157.412 117.143L160.157 117.143ZM279.997 116.36V0.00158691H259.056V116.36H279.997ZM103.92 44.8226C98.116 38.5543 89.9592 35.4201 79.606 35.4201C74.5864 35.4201 69.9588 36.4387 65.8801 38.4759C61.7232 40.5131 58.2721 43.3338 55.4486 46.9381L54.3506 48.4269V36.9877H33.7226V116.282H54.5072V74.0487V76.9478V75.5375C54.7425 68.0938 56.5464 62.6087 59.9975 59.0828C63.6838 55.3219 68.1545 53.4414 73.2524 53.4414C79.2917 53.4414 83.9188 55.3219 86.9783 58.9262C89.9588 62.5305 91.5275 67.6234 91.5275 74.1269V116.282H112.625V71.3063C112.704 60.0236 109.723 51.0911 103.919 44.8228L103.92 44.8226ZM248.238 76.5562C248.238 70.8364 247.218 65.5082 245.257 60.4938C243.218 55.5575 240.395 51.1696 236.865 47.4086C233.257 43.6476 228.943 40.7485 223.923 38.633C218.904 36.5175 213.335 35.4988 207.296 35.4988C201.57 35.4988 196.158 36.5958 191.139 38.7113C186.119 40.9053 181.727 43.8043 178.041 47.4869C174.354 51.1695 171.374 55.5573 169.256 60.5722C167.06 65.5868 166.04 70.9932 166.04 76.7128C166.04 82.4327 167.06 87.839 169.099 92.8534C171.138 97.8681 174.04 102.256 177.648 105.939C181.256 109.621 185.727 112.599 190.903 114.714C196.08 116.908 201.806 118.005 207.924 118.005C225.65 118.005 236.63 109.935 243.218 102.413L228.159 90.9741C225.022 94.7351 217.493 99.8281 208.08 99.8281C202.198 99.8281 197.336 98.4962 193.649 95.7537C189.962 93.0896 187.452 89.3287 186.119 84.7057L185.884 84.0006H248.238L248.238 76.5562ZM186.041 69.2693C186.041 63.4711 192.707 53.3634 207.06 53.2851C221.414 53.2851 228.158 63.3928 228.158 69.1911L186.041 69.2693Z" fill="black"/>
</g>
<defs>
<clipPath id="clip0_120_43">
<rect width="280" height="118" fill="white"/>
</clipPath>
</defs>
</svg>
