<svg width="451" height="96" viewBox="0 0 451 96" fill="none" xmlns="http://www.w3.org/2000/svg">
<g clip-path="url(#clip0_120_47)">
<path d="M187.56 19.2V76.8H177.541V31.6H177.408L159.507 76.8H152.827L134.525 31.6H134.392V76.8H125.174V19.2H139.602L156.167 61.8667H156.434L173.934 19.2H187.56V19.2ZM195.843 23.6C195.843 22 196.377 20.6667 197.58 19.6C198.782 18.5333 200.118 18 201.721 18C203.458 18 204.927 18.5333 205.996 19.6C207.065 20.6667 207.733 22 207.733 23.6C207.733 25.2 207.198 26.5333 205.996 27.6C204.794 28.6667 203.458 29.2 201.721 29.2C199.984 29.2 198.648 28.6667 197.58 27.6C196.511 26.4 195.843 25.0667 195.843 23.6ZM206.664 35.4667V76.8H196.912V35.4667H206.664ZM236.187 69.7333C237.657 69.7333 239.26 69.4667 240.996 68.6667C242.733 68 244.336 67.0667 245.806 66V75.0667C244.203 76 242.466 76.6667 240.462 77.0667C238.458 77.4667 236.321 77.7333 233.916 77.7333C227.771 77.7333 222.828 75.8667 219.088 72C215.214 68.1333 213.343 63.2 213.343 57.3333C213.343 50.6667 215.347 45.2 219.221 40.9333C223.095 36.6667 228.573 34.5333 235.786 34.5333C237.657 34.5333 239.527 34.8 241.264 35.2C243.134 35.6 244.603 36.2667 245.672 36.8V46.1333C244.203 45.0667 242.6 44.1333 241.13 43.6C239.527 43.0667 237.924 42.6667 236.321 42.6667C232.447 42.6667 229.374 43.8667 226.969 46.4C224.565 48.9333 223.496 52.2667 223.496 56.5333C223.496 60.6667 224.698 64 226.969 66.2667C229.241 68.5333 232.313 69.7333 236.187 69.7333ZM273.459 34.8C274.26 34.8 274.928 34.8 275.596 34.9333C276.264 35.0667 276.799 35.2 277.199 35.3333V45.2C276.665 44.8 275.997 44.4 274.928 44.1333C273.86 43.8667 272.791 43.6 271.321 43.6C268.917 43.6 266.913 44.6667 265.31 46.6667C263.707 48.6667 262.772 51.7333 262.772 56V76.8H253.02V35.4667H262.772V42H262.905C263.84 39.7333 265.176 38 266.913 36.6667C268.783 35.4667 270.921 34.8 273.459 34.8ZM277.734 56.8C277.734 50 279.738 44.5333 283.478 40.5333C287.352 36.5333 292.696 34.5333 299.509 34.5333C305.921 34.5333 310.998 36.4 314.605 40.2667C318.211 44.1333 320.082 49.3333 320.082 55.8667C320.082 62.5333 318.078 67.8667 314.337 71.8667C310.463 75.8667 305.253 77.8667 298.574 77.8667C292.161 77.8667 287.085 76 283.344 72.2667C279.604 68.4 277.734 63.2 277.734 56.8ZM287.887 56.4C287.887 60.6667 288.822 64 290.826 66.2667C292.829 68.5333 295.635 69.7333 299.242 69.7333C302.715 69.7333 305.52 68.6667 307.391 66.2667C309.261 64 310.196 60.6667 310.196 56.1333C310.196 51.7333 309.261 48.4 307.391 46C305.52 43.7333 302.715 42.5333 299.375 42.5333C295.768 42.5333 293.097 43.7333 291.093 46.1333C288.822 48.6667 287.887 52 287.887 56.4ZM334.643 46.4C334.643 47.7333 335.044 48.9333 335.979 49.7333C336.914 50.5333 338.784 51.4667 341.857 52.6667C345.731 54.2667 348.536 56 350.006 57.8667C351.609 59.8667 352.411 62.1333 352.411 64.9333C352.411 68.8 350.941 71.8667 347.868 74.2667C344.929 76.6667 340.788 77.7333 335.712 77.7333C333.975 77.7333 332.105 77.4667 329.967 77.0667C327.83 76.6667 326.093 76.1333 324.624 75.4667V65.8667C326.36 67.0667 328.364 68.1333 330.368 68.8C332.372 69.4667 334.242 69.8667 335.979 69.8667C338.116 69.8667 339.853 69.6 340.788 68.9333C341.857 68.2667 342.391 67.3333 342.391 65.8667C342.391 64.5333 341.857 63.4667 340.788 62.4C339.719 61.4667 337.582 60.4 334.643 59.2C331.036 57.7333 328.498 56 327.028 54.1333C325.559 52.2667 324.757 49.8667 324.757 46.9333C324.757 43.2 326.227 40.1333 329.166 37.7333C332.105 35.3333 335.979 34.1333 340.655 34.1333C342.124 34.1333 343.727 34.2667 345.464 34.6667C347.201 35.0667 348.804 35.4667 350.006 35.8667V45.3333C348.67 44.5333 347.201 43.7333 345.464 43.0667C343.727 42.4 341.991 42.1333 340.387 42.1333C338.517 42.1333 337.048 42.5333 336.113 43.2C335.177 44.1333 334.643 45.0667 334.643 46.4ZM356.552 56.8C356.552 50 358.556 44.5333 362.296 40.5333C366.17 36.5333 371.514 34.5333 378.327 34.5333C384.739 34.5333 389.816 36.4 393.423 40.2667C397.03 44.1333 398.9 49.3333 398.9 55.8667C398.9 62.5333 396.896 67.8667 393.155 71.8667C389.281 75.8667 384.071 77.8667 377.392 77.8667C370.98 77.8667 365.903 76 362.163 72.2667C358.556 68.4 356.552 63.2 356.552 56.8ZM366.705 56.4C366.705 60.6667 367.64 64 369.644 66.2667C371.648 68.5333 374.453 69.7333 378.06 69.7333C381.533 69.7333 384.339 68.6667 386.209 66.2667C388.079 64 389.014 60.6667 389.014 56.1333C389.014 51.7333 388.079 48.4 386.209 46C384.339 43.7333 381.533 42.5333 378.193 42.5333C374.587 42.5333 371.915 43.7333 369.911 46.1333C367.773 48.6667 366.705 52 366.705 56.4ZM431.362 43.4667H416.801V76.8H406.915V43.4667H399.969V35.4667H406.915V29.7333C406.915 25.4667 408.385 21.8667 411.19 19.0667C413.996 16.2667 417.602 14.9333 422.011 14.9333C423.213 14.9333 424.282 15.0667 425.217 15.0667C426.152 15.0667 426.954 15.3333 427.622 15.6V24C427.355 23.8667 426.687 23.6 425.885 23.3333C425.084 23.0667 424.148 22.9333 423.08 22.9333C421.076 22.9333 419.473 23.6 418.404 24.8C417.335 26 416.801 28 416.801 30.4V35.3333H431.362V26L441.114 23.0667V35.3333H451V43.3333H441.114V62.6667C441.114 65.2 441.649 66.9333 442.45 68C443.385 69.0667 444.855 69.6 446.859 69.6C447.393 69.6 448.061 69.4667 448.863 69.2C449.664 68.9333 450.332 68.6667 450.866 68.2667V76.2667C450.198 76.6667 449.263 76.9333 447.794 77.2C446.324 77.4667 444.988 77.6 443.519 77.6C439.378 77.6 436.305 76.5333 434.301 74.4C432.297 72.2667 431.229 68.9333 431.229 64.5333L431.362 43.4667Z" fill="#737373"/>
<path d="M45.6878 0H0V45.6H45.6878V0Z" fill="#F25022"/>
<path d="M96.1848 0H50.497V45.6H96.1848V0Z" fill="#7FBA00"/>
<path d="M45.6878 50.4H0V96H45.6878V50.4Z" fill="#00A4EF"/>
<path d="M96.1848 50.4H50.497V96H96.1848V50.4Z" fill="#FFB900"/>
</g>
<defs>
<clipPath id="clip0_120_47">
<rect width="451" height="96" fill="white"/>
</clipPath>
</defs>
</svg>
